<?xml version="1.0" standalone="no"?>
<!DOCTYPE svg PUBLIC "-//W3C//DTD SVG 20010904//EN"
 "http://www.w3.org/TR/2001/REC-SVG-20010904/DTD/svg10.dtd">
<svg version="1.0" xmlns="http://www.w3.org/2000/svg"
 width="899.000000pt" height="205.000000pt" viewBox="0 0 899.000000 205.000000"
 preserveAspectRatio="xMidYMid meet">
<metadata>
Created by potrace 1.16, written by Peter Selinger 2001-2019
</metadata>
<g transform="translate(0.000000,205.000000) scale(0.100000,-0.100000)"
fill="#000000" stroke="none">
<path d="M1853 1715 c-35 -25 -51 -89 -79 -310 -14 -115 -43 -311 -64 -435
-43 -245 -42 -265 11 -284 49 -17 73 -2 108 69 68 135 238 369 287 396 37 19
53 -4 65 -92 22 -168 29 -202 50 -246 38 -79 127 -110 168 -57 16 21 18 30 10
52 -6 15 -16 34 -24 42 -23 26 -53 132 -65 226 -17 140 -38 203 -74 225 -61
37 -142 20 -216 -47 -41 -38 -120 -145 -154 -212 -10 -19 -19 -32 -21 -30 -3
2 9 64 26 138 96 428 104 524 46 565 -27 19 -47 19 -74 0z"/>
<path d="M7994 1703 c-33 -36 -40 -67 -69 -303 -14 -113 -41 -297 -61 -410
-19 -113 -36 -221 -36 -240 0 -45 32 -72 81 -68 34 3 38 8 81 88 82 153 229
353 282 381 31 16 47 -7 58 -82 5 -35 14 -97 20 -138 18 -125 74 -201 148
-201 21 0 37 8 51 26 22 28 20 37 -16 101 -31 53 -50 124 -63 233 -17 134 -35
187 -73 210 -102 63 -225 -15 -345 -217 -29 -48 -52 -84 -52 -81 0 3 21 98 46
210 81 361 88 458 37 498 -35 27 -59 25 -89 -7z"/>
<path d="M1506 1605 c-8 -8 -18 -37 -21 -63 -14 -102 -47 -249 -77 -341 -38
-120 -128 -325 -138 -314 -4 4 -39 91 -78 193 -112 292 -116 300 -156 300 -40
0 -67 -32 -116 -137 -60 -127 -210 -377 -220 -366 -7 8 -52 252 -85 464 -28
177 -55 239 -106 239 -66 0 -99 -49 -79 -116 6 -22 37 -172 70 -334 69 -346
91 -422 131 -462 65 -65 96 -33 271 274 61 108 115 195 119 193 4 -3 10 -17
14 -32 3 -16 34 -97 67 -182 68 -173 108 -231 160 -231 16 0 38 5 50 11 23 13
148 266 215 439 88 226 123 433 79 466 -26 18 -81 18 -100 -1z"/>
<path d="M4915 1585 c-14 -13 -25 -29 -25 -34 0 -49 -74 -673 -86 -733 -16
-74 -16 -78 3 -110 18 -31 22 -33 74 -33 30 1 90 11 134 23 102 29 247 44 344
36 65 -5 80 -3 108 15 35 22 49 56 39 96 -11 42 -37 48 -145 36 -53 -6 -160
-18 -239 -27 -79 -9 -146 -13 -149 -10 -7 7 19 243 53 483 13 94 24 187 24
207 0 71 -84 103 -135 51z"/>
<path d="M3472 1576 c-10 -14 -29 -63 -40 -109 -36 -142 -28 -133 -123 -141
-93 -8 -109 -16 -109 -56 0 -42 41 -70 101 -70 27 0 49 -3 49 -7 0 -4 -14 -74
-31 -157 -35 -169 -34 -234 1 -291 30 -49 71 -67 146 -67 80 -1 141 28 212 98
40 41 52 60 52 83 0 24 -5 32 -24 37 -19 4 -39 -5 -85 -37 -53 -37 -69 -43
-113 -44 -50 0 -52 1 -62 33 -10 38 0 120 34 268 l21 91 107 17 c171 27 202
42 202 96 0 20 -6 31 -20 35 -20 6 -189 -2 -222 -12 -24 -6 -23 14 7 117 25
83 25 85 7 110 -28 36 -83 39 -110 6z"/>
<path d="M4419 1561 c-67 -45 -393 -316 -482 -400 -94 -90 -125 -135 -106
-157 38 -46 80 -50 229 -19 36 7 100 16 143 20 71 6 77 5 77 -12 0 -10 -5 -69
-10 -132 -15 -161 3 -201 91 -201 58 0 103 78 64 110 -16 13 -20 108 -9 194
l7 46 57 0 c31 0 80 -7 109 -16 48 -14 55 -14 77 1 17 11 24 25 24 48 0 60
-24 74 -148 83 -57 4 -92 11 -92 18 0 27 33 181 60 278 37 132 37 146 4 158
-38 15 -46 13 -95 -19z m-59 -201 c0 -5 -11 -58 -25 -118 l-26 -108 -127 -17
c-70 -10 -133 -17 -140 -17 -7 0 28 35 78 78 50 42 121 103 158 134 68 58 82
66 82 48z"/>
<path d="M7484 1381 c-62 -28 -118 -84 -183 -182 -150 -223 -156 -441 -15
-510 39 -18 58 -21 129 -17 95 5 177 39 253 103 109 94 74 169 -44 93 -70 -45
-136 -68 -195 -68 -40 0 -55 5 -76 26 -23 23 -25 31 -20 77 7 70 37 154 83
228 90 149 137 167 158 60 11 -61 50 -86 96 -61 45 24 44 139 -3 207 -43 64
-106 79 -183 44z"/>
<path d="M2844 1376 c-122 -38 -281 -218 -340 -383 -32 -92 -33 -187 -1 -234
71 -107 208 -81 355 67 l72 74 0 -43 c1 -93 34 -166 81 -177 42 -11 98 10 115
42 14 27 14 30 -15 56 -16 15 -35 41 -41 57 -17 44 -15 197 5 301 23 124 19
156 -21 168 -17 5 -38 22 -47 38 -27 47 -83 59 -163 34z m77 -137 c51 -51 -8
-195 -131 -320 -72 -74 -122 -101 -150 -84 -17 11 -11 88 13 145 40 98 133
219 195 257 45 28 47 28 73 2z"/>
<path d="M5673 1338 c-12 -14 -24 -49 -31 -88 -6 -36 -22 -119 -36 -185 -38
-177 -32 -260 22 -318 58 -62 108 -71 187 -33 65 30 109 68 161 139 48 65 43
70 63 -52 18 -110 60 -148 131 -116 53 24 59 47 21 90 -19 23 -32 50 -37 81
-10 68 2 260 21 318 29 93 12 146 -46 146 -48 -1 -72 -36 -108 -160 -29 -96
-69 -166 -139 -241 -83 -90 -145 -115 -158 -63 -11 42 3 142 32 239 61 204 61
208 21 245 -28 27 -78 26 -104 -2z"/>
<path d="M6420 1311 c-26 -29 -27 -36 -34 -166 -4 -75 -14 -175 -21 -223 -27
-163 -19 -204 42 -221 45 -13 64 5 113 107 50 104 156 264 208 315 73 71 91
47 121 -155 21 -146 35 -184 77 -217 54 -42 159 -17 197 47 15 25 16 35 7 52
-9 18 -17 20 -43 14 -18 -4 -39 -7 -47 -8 -20 -1 -37 54 -55 191 -27 195 -72
263 -176 263 -93 0 -184 -79 -258 -224 -18 -36 -34 -66 -35 -66 -1 0 3 33 10
73 21 114 18 203 -6 227 -29 29 -67 25 -100 -9z"/>
</g>
</svg>
